<?xml version="1.0" standalone="no"?>
<!DOCTYPE svg PUBLIC "-//W3C//DTD SVG 20010904//EN"
 "http://www.w3.org/TR/2001/REC-SVG-20010904/DTD/svg10.dtd">
<svg version="1.0" xmlns="http://www.w3.org/2000/svg"
 width="225.000000pt" height="225.000000pt" viewBox="0 0 225.000000 225.000000"
 preserveAspectRatio="xMidYMid meet">

<g transform="translate(0.000000,225.000000) scale(0.100000,-0.100000)"
fill="blue" stroke="none">
<path d="M290 1115 l0 -895 483 0 c288 0 508 4 547 11 190 30 355 116 495 254
212 211 301 494 250 790 -30 172 -104 319 -224 447 -141 151 -316 247 -502
278 -38 6 -266 10 -556 10 l-493 0 0 -895z m1050 740 c279 -65 495 -268 570
-537 103 -369 -93 -763 -448 -901 -137 -52 -186 -57 -628 -57 l-405 0 3 447
c3 392 6 455 21 508 77 262 287 467 547 534 93 24 249 27 340 6z"/>
<path d="M1031 1694 c-30 -8 -84 -29 -120 -47 -90 -43 -215 -168 -258 -257
-59 -123 -63 -153 -63 -529 l0 -341 328 0 c372 0 421 7 552 76 196 103 323
334 307 560 -18 257 -197 473 -447 539 -70 19 -228 18 -299 -1z m264 -139
c224 -59 375 -287 335 -507 -34 -191 -182 -342 -369 -378 -30 -5 -161 -10
-293 -10 l-239 0 3 283 3 282 37 78 c97 202 313 306 523 252z"/>
<path d="M1052 1379 c-65 -32 -99 -66 -135 -133 -20 -37 -22 -58 -25 -234 l-4
-194 184 4 c177 3 185 4 240 31 107 53 162 143 163 267 0 58 -5 85 -23 121
-75 152 -250 213 -400 138z m191 -123 c45 -18 84 -67 92 -116 5 -32 2 -51 -17
-88 -34 -68 -70 -86 -191 -90 l-99 -4 4 108 c3 93 6 114 25 140 42 58 118 79
186 50z"/>
</g>
</svg>
